<?xml version="1.0" encoding="UTF-8"?>
<svg id="Layer_1" data-name="Layer 1" xmlns="http://www.w3.org/2000/svg" viewBox="0 0 120 120">
  <defs>
    <style>
      .cls-1 {
        fill: #fff;
      }

      .cls-2 {
        fill: #ff5f05;
      }

      .cls-3 {
        fill: #13294b;
      }
    </style>
  </defs>
  <rect class="cls-1" width="120" height="120"/>
  <g>
    <path class="cls-3" d="m82.27,45.16v-17.32h-44.53v17.32h9.9v29.69h-9.9v17.32h44.53v-17.32h-9.9v-29.69h9.9Zm-9.9,32.16h7.42v12.37h-39.58v-12.37h7.42c1.37,0,2.47-1.11,2.47-2.47v-29.69c0-1.37-1.11-2.47-2.47-2.47h-7.42v-12.37h39.58v12.37h-7.42c-1.37,0-2.47,1.11-2.47,2.47v29.69c0,1.37,1.11,2.47,2.47,2.47Z"/>
    <path class="cls-2" d="m72.37,42.68h7.42v-12.37h-39.58v12.37h7.42c1.37,0,2.47,1.11,2.47,2.47v29.69c0,1.37-1.11,2.47-2.47,2.47h-7.42v12.37h39.58v-12.37h-7.42c-1.37,0-2.47-1.11-2.47-2.47v-29.69c0-1.37,1.11-2.47,2.47-2.47Z"/>
  </g>
</svg>